<?xml version="1.0" encoding="UTF-8"?>
<!DOCTYPE svg PUBLIC "-//W3C//DTD SVG 1.1//EN" "http://www.w3.org/Graphics/SVG/1.1/DTD/svg11.dtd">
<svg xmlns="http://www.w3.org/2000/svg" version="1.1" width="128px" height="128px" style="shape-rendering:geometricPrecision; text-rendering:geometricPrecision; image-rendering:optimizeQuality; fill-rule:evenodd; clip-rule:evenodd" xmlns:xlink="http://www.w3.org/1999/xlink">
<g><path style="opacity:0.808" fill="#000000" d="M 127.5,25.5 C 127.5,27.8333 127.5,30.1667 127.5,32.5C 125.981,35.0205 124.314,37.5205 122.5,40C 119.333,40.8333 118.167,39.6667 119,36.5C 120.123,33.7513 121.623,31.2513 123.5,29C 119.91,25.8715 115.91,23.8715 111.5,23C 108.989,25.1793 106.822,27.6793 105,30.5C 101.212,37.9125 97.0453,45.0791 92.5,52C 90.3927,52.8542 89.0593,52.1875 88.5,50C 90.9534,45.5942 93.2867,41.0942 95.5,36.5C 92.0433,32.4644 88.5433,32.1311 85,35.5C 81.6995,41.6297 78.1995,47.6297 74.5,53.5C 80.1376,54.3299 85.8042,54.8299 91.5,55C 92.3333,55.8333 93.1667,56.6667 94,57.5C 94.3333,64.5 94.6667,71.5 95,78.5C 101.51,65.4646 109.01,53.1312 117.5,41.5C 119.941,43.5282 120.108,45.8616 118,48.5C 110.293,62.0819 102.46,75.5819 94.5,89C 97.7119,97.3587 100.212,105.859 102,114.5C 100.667,115.833 99.3333,115.833 98,114.5C 96.8476,111.56 95.8476,108.56 95,105.5C 94.6667,108.833 94.3333,112.167 94,115.5C 93.1667,116.333 92.3333,117.167 91.5,118C 85.3258,118.95 79.3258,118.617 73.5,117C 73.9574,116.586 74.2907,116.086 74.5,115.5C 79.3829,114.809 84.2162,114.143 89,113.5C 89.4999,100.171 89.6666,86.8375 89.5,73.5C 67.5,73.5 45.5,73.5 23.5,73.5C 23.177,87.0792 23.5103,100.579 24.5,114C 39.8333,114.333 55.1667,114.667 70.5,115C 71.4506,115.718 71.6172,116.551 71,117.5C 54.2406,118.658 37.4073,118.825 20.5,118C 18.8717,114.397 18.0384,110.563 18,106.5C 11.8355,114.453 5.66883,114.453 -0.5,106.5C -0.5,103.5 -0.5,100.5 -0.5,97.5C 0.363622,96.3117 1.36362,95.1451 2.5,94C 3.44915,93.3828 4.28248,93.5494 5,94.5C 5.61745,97.0351 5.11745,99.3684 3.5,101.5C 4.76123,104.264 6.59456,106.597 9,108.5C 12,105.5 15,102.5 18,99.5C 18.6667,94.8333 18.6667,90.1667 18,85.5C 15.5,88 13,90.5 10.5,93C 9.20677,93.49 7.87344,93.6567 6.5,93.5C 6.34332,92.1266 6.50999,90.7932 7,89.5C 10.6667,85.8333 14.3333,82.1667 18,78.5C 19.1093,75.0528 18.1093,72.3862 15,70.5C 14.2327,66.4065 14.566,62.4065 16,58.5C 17.214,56.9512 18.714,55.7845 20.5,55C 26.4908,54.5005 32.4908,54.3338 38.5,54.5C 38.5,55.8333 38.5,57.1667 38.5,58.5C 32.7383,58.1493 27.0716,58.6493 21.5,60C 19.4146,62.8365 19.0813,65.8365 20.5,69C 43.4976,69.5 66.4976,69.6666 89.5,69.5C 89.7892,65.8936 89.4558,62.3936 88.5,59C 72.8369,58.5001 57.1702,58.3334 41.5,58.5C 41.5,57.1667 41.5,55.8333 41.5,54.5C 50.5062,54.6664 59.5062,54.4998 68.5,54C 72.46,47.2475 76.2934,40.4142 80,33.5C 82.0673,30.93 84.5673,28.93 87.5,27.5C 87.2333,19.541 90.5667,13.3743 97.5,9C 106.608,6.88724 112.942,10.0539 116.5,18.5C 120.364,20.5943 124.031,22.9277 127.5,25.5 Z M 101.5,12.5 C 104.757,13.4617 107.757,14.9617 110.5,17C 105.617,21.0548 101.617,25.8881 98.5,31.5C 94.8369,30.6834 92.5035,28.5168 91.5,25C 93.6642,19.6926 96.9976,15.5259 101.5,12.5 Z"/></g>
</svg>
