<svg width="0" height="0" class="hidden">
  <symbol version="1.0" xmlns="http://www.w3.org/2000/svg" preserveAspectRatio="xMidYMid meet" viewBox="0 0 128.000000 128.000000" id="pillow">
    <g transform="translate(0.000000,128.000000) scale(0.100000,-0.100000)" fill="#000000" stroke="none">
      <path d="M5 1270 c-4 -6 3 -48 15 -94 22 -82 22 -85 6 -202 -34 -239 -31 -536
6 -727 9 -51 8 -68 -12 -143 -16 -60 -19 -89 -12 -96 8 -8 41 -3 111 17 90 24
107 26 160 17 35 -6 113 -8 184 -5 76 4 162 1 223 -7 129 -16 296 -17 361 -1
45 11 60 10 133 -10 57 -15 85 -18 92 -11 7 7 3 37 -12 99 -26 97 -35 114 -56
106 -18 -7 -18 -37 1 -98 8 -27 13 -50 12 -52 -2 -1 -27 5 -57 14 -47 14 -63
14 -120 3 -80 -17 -202 -16 -343 0 -63 8 -156 11 -229 7 -68 -3 -152 -1 -189
5 -56 9 -76 7 -139 -10 -41 -11 -76 -20 -77 -18 -1 1 5 26 14 56 14 50 14 62
-3 174 -26 168 -26 479 0 668 18 129 18 142 3 195 -8 32 -15 59 -14 60 1 1 28
-6 59 -14 55 -15 61 -15 153 7 118 28 232 24 374 -15 89 -25 98 -26 184 -15
51 7 125 9 167 6 59 -5 90 -2 145 13 38 11 71 19 72 18 1 -1 -6 -28 -14 -60
-15 -54 -15 -66 2 -185 13 -90 19 -192 20 -352 2 -213 3 -225 21 -225 15 0 20
11 27 55 12 78 1 383 -19 524 -16 118 -16 120 6 203 16 60 19 88 12 95 -8 8
-39 3 -105 -15 -80 -22 -107 -25 -178 -21 -46 4 -119 1 -162 -5 -73 -10 -85
-9 -180 16 -129 35 -304 39 -403 9 -60 -18 -63 -18 -138 3 -88 24 -93 25 -101
11z"></path>
      <path d="M707 1013 c-2 -5 -12 -31 -21 -60 -20 -60 -59 -118 -128 -190 -43
-43 -50 -55 -44 -77 6 -24 4 -26 -16 -21 -20 5 -28 -2 -56 -50 -17 -31 -32
-64 -32 -72 0 -9 21 -56 47 -104 l47 -89 -37 -38 c-20 -21 -37 -46 -37 -55 0
-29 34 -19 75 23 l39 40 82 0 83 0 30 37 c42 51 96 156 116 227 26 88 17 223
-18 296 -43 91 -113 162 -130 133z m71 -131 c74 -139 54 -305 -58 -467 -30
-43 -33 -45 -81 -45 l-51 0 36 49 c104 141 166 376 92 348 -9 -4 -16 -18 -16
-35 0 -45 -29 -131 -66 -201 -37 -68 -82 -131 -93 -131 -4 0 -24 31 -44 69
l-37 69 17 36 c16 34 18 35 39 21 13 -8 32 -15 44 -15 21 0 25 24 11 85 -6 27
0 37 51 94 32 35 70 90 86 122 15 32 30 58 33 58 3 1 20 -25 37 -57z"></path>
      <path d="M1223 323 c-21 -8 -15 -43 6 -43 11 0 23 5 27 11 8 14 -17 38 -33 32z"></path>
    </g>
  </symbol>
  <symbol version="1.0" xmlns="http://www.w3.org/2000/svg" preserveAspectRatio="xMidYMid meet" viewBox="0 0 128.000000 128.000000" id="pencil">
    <g transform="translate(0.000000,128.000000) scale(0.100000,-0.100000)" fill="#000000" stroke="none">
      <path d="M133 1148 c-73 -73 -133 -137 -133 -142 0 -6 89 -100 197 -208 l198
-198 -112 -112 -112 -113 -51 -137 c-53 -147 -57 -163 -38 -171 7 -2 78 20
158 50 l145 54 110 110 110 109 195 -195 c107 -107 200 -195 206 -195 12 0
267 254 273 272 2 5 -85 99 -193 207 l-196 196 146 145 c148 148 170 176 174
220 5 61 -1 82 -38 121 -40 43 -92 59 -149 44 -17 -4 -87 -65 -186 -163 l-157
-156 -198 197 c-109 108 -202 197 -207 197 -4 0 -68 -59 -142 -132z m175 39
l22 -23 -55 -54 c-30 -30 -55 -62 -55 -72 0 -36 24 -28 79 26 31 31 61 56 67
56 5 0 25 -16 44 -35 l34 -35 -43 -44 c-67 -69 -28 -96 41 -29 l38 37 35 -34
35 -34 -61 -62 c-59 -59 -68 -84 -31 -84 9 0 42 25 72 55 l56 55 29 -30 29
-31 -107 -107 -107 -107 -185 185 -185 185 102 102 c57 57 108 103 114 103 6
0 20 -10 32 -23z m821 -54 c42 -39 45 -95 9 -138 l-23 -26 -70 71 -70 71 28
25 c39 33 88 32 126 -3z m-116 -131 l68 -68 -26 -24 -26 -24 -69 69 -70 69 22
23 c12 13 24 23 28 23 3 0 36 -31 73 -68z m-90 -90 l67 -67 -308 -308 -307
-307 -70 70 -70 70 305 305 c168 168 307 305 310 305 3 0 36 -30 73 -68z m-67
-391 c-40 -40 -57 -65 -53 -75 10 -26 25 -19 88 41 l60 57 37 -37 36 -37 -43
-44 c-67 -69 -28 -96 41 -29 l38 37 37 -37 38 -37 -59 -59 c-40 -40 -57 -65
-53 -75 11 -27 29 -18 89 41 l58 57 25 -24 26 -24 -108 -108 -108 -108 -182
182 -183 183 107 107 108 108 30 -30 29 -30 -58 -59z m-587 -255 c29 -30 51
-58 47 -64 -3 -5 -26 -15 -52 -22 -44 -13 -47 -12 -71 12 l-25 26 17 51 c9 28
20 51 24 51 4 0 31 -24 60 -54z m-104 -116 c3 -5 -1 -10 -9 -10 -9 0 -16 5
-16 10 0 6 4 10 9 10 6 0 13 -4 16 -10z"></path>
      <path d="M626 661 c-91 -91 -127 -134 -123 -145 4 -9 12 -16 19 -16 7 0 71 58
142 129 91 91 127 134 123 145 -4 9 -12 16 -19 16 -7 0 -71 -58 -142 -129z"></path>
      <path d="M441 471 c-19 -12 -6 -43 16 -39 10 2 18 12 18 22 0 22 -14 29 -34
17z"></path>
    </g>
  </symbol>
  <symbol version="1.0" xmlns="http://www.w3.org/2000/svg" preserveAspectRatio="xMidYMid meet" viewBox="0 0 128.000000 128.000000" id="motion">
    <g transform="translate(0.000000,128.000000) scale(0.100000,-0.100000)" fill="#000000" stroke="none">
      <path d="M21 1261 c-21 -21 -22 -29 -18 -144 2 -67 7 -138 10 -157 3 -19 38
-114 78 -210 l73 -175 6 -257 5 -258 28 -27 27 -28 388 -3 c422 -2 421 -2 454
55 17 28 18 41 10 115 -5 46 -8 84 -7 86 1 1 35 -4 76 -12 46 -9 80 -11 91 -5
18 10 44 110 34 135 -7 19 -36 29 -126 44 -41 7 -80 16 -86 21 -6 5 -14 43
-17 84 -8 91 -25 128 -69 146 -31 13 -111 6 -520 -49 l-37 -4 -81 163 c-45 90
-89 172 -97 181 -12 14 -15 41 -14 127 l2 110 -34 37 c-31 34 -40 38 -94 42
-52 4 -64 1 -82 -17z m139 -47 l31 -26 -3 -92 -3 -91 -58 -3 c-35 -2 -64 2
-73 9 -18 15 -20 199 -2 217 21 21 74 14 108 -14z m42 -271 c18 -20 171 -323
166 -328 -8 -8 -163 -24 -168 -18 -9 11 -140 340 -140 353 0 6 28 10 63 10 48
0 68 -4 79 -17z m779 -324 c11 -11 19 -28 17 -37 -3 -15 -53 -23 -353 -59
-193 -22 -369 -44 -392 -47 l-43 -6 0 39 0 39 98 12 c53 7 207 27 342 45 303
40 305 40 331 14z m42 -281 c10 -101 17 -202 17 -225 0 -74 7 -73 -413 -73
l-368 0 -24 25 c-25 24 -25 27 -25 194 l0 170 53 6 c456 56 688 83 713 84 l30
1 17 -182z m163 31 l52 -10 -8 -35 c-5 -20 -10 -38 -13 -40 -9 -9 -147 21
-147 32 0 6 -3 26 -7 44 l-6 33 39 -7 c21 -4 62 -11 90 -17z"></path>
      <path d="M586 423 c-3 -4 -6 -42 -6 -85 0 -70 2 -79 18 -76 14 3 17 16 20 79
2 59 0 78 -12 82 -8 3 -17 3 -20 0z"></path>
      <path d="M488 353 c-84 -97 -18 -243 111 -243 108 0 176 105 132 205 -21 47
-45 65 -63 47 -7 -7 -4 -19 11 -38 40 -51 23 -133 -36 -163 -91 -46 -194 68
-134 149 11 16 21 36 21 45 0 20 -23 19 -42 -2z"></path>
    </g>
  </symbol>
</svg>