<svg width="0" height="0" class="hidden">
  <symbol version="1.0" xmlns="http://www.w3.org/2000/svg" preserveAspectRatio="xMidYMid meet" viewBox="0 0 128.000000 128.000000" id="comfort">
    <metadata>Created by potrace 1.10, written by Peter Selinger 2001-2011</metadata>
    <g transform="translate(0.000000,128.000000) scale(0.100000,-0.100000)" fill="#000000" stroke="none">
      <path d="M12 1271 c-8 -5 -6 -30 9 -91 20 -82 20 -89 4 -210 -19 -150 -16
-628 5 -721 11 -50 10 -67 -9 -145 -14 -61 -17 -90 -10 -95 12 -7 19 -6 131
23 65 17 87 18 135 10 32 -6 115 -8 186 -5 76 4 169 1 234 -7 134 -16 271 -16
345 -1 46 10 67 9 120 -4 34 -8 70 -17 79 -19 36 -8 39 8 18 99 -21 91 -38
123 -58 111 -15 -10 -14 -44 4 -101 8 -27 13 -50 12 -51 -1 -2 -32 6 -68 16
-43 11 -71 15 -82 9 -36 -20 -167 -29 -270 -17 -56 6 -196 12 -312 13 -116 2
-221 7 -234 12 -18 7 -46 4 -105 -13 -44 -13 -82 -22 -83 -21 -1 2 5 27 14 57
14 46 14 66 4 125 -37 224 -39 479 -5 730 16 120 16 134 1 185 -9 30 -15 55
-14 56 1 2 31 -5 66 -15 61 -17 65 -17 119 3 89 32 266 29 395 -7 91 -26 104
-27 173 -17 86 11 190 12 218 1 12 -5 52 1 100 15 44 13 81 22 83 21 1 -1 -6
-28 -14 -60 -15 -54 -15 -66 2 -185 13 -90 19 -192 20 -352 2 -214 3 -225 21
-225 18 0 19 12 22 225 1 160 -2 261 -14 350 -15 121 -15 128 5 210 14 59 17
86 10 91 -11 6 -104 -11 -163 -31 -16 -6 -65 -7 -110 -4 -48 4 -118 2 -168 -6
-80 -11 -90 -10 -159 11 -54 17 -99 24 -166 24 -50 0 -90 2 -88 5 6 10 -159
-8 -193 -20 -30 -11 -97 -2 -188 25 -6 2 -16 0 -22 -4z m33 -31 c3 -5 1 -10
-4 -10 -6 0 -11 5 -11 10 0 6 2 10 4 10 3 0 8 -4 11 -10z m1205 0 c0 -5 -5
-10 -11 -10 -5 0 -7 5 -4 10 3 6 8 10 11 10 2 0 4 -4 4 -10z m-1200 -1195 c10
-12 10 -15 -4 -15 -9 0 -16 7 -16 15 0 19 4 19 20 0z m1200 -5 c0 -5 -4 -10
-10 -10 -5 0 -10 5 -10 10 0 6 5 10 10 10 6 0 10 -4 10 -10z"></path>
      <path d="M707 1013 c-2 -5 -12 -32 -21 -60 -20 -60 -84 -152 -140 -201 -35
-30 -37 -36 -31 -70 5 -30 4 -35 -6 -24 -23 22 -37 13 -73 -52 l-35 -65 50
-91 c27 -50 49 -94 49 -98 0 -5 -18 -25 -39 -46 -39 -38 -44 -66 -12 -66 9 0
35 18 56 40 l39 40 82 0 83 0 30 37 c42 51 96 156 116 227 26 89 17 223 -19
298 -44 91 -112 160 -129 131z m33 -37 c0 -3 -4 -8 -10 -11 -5 -3 -10 -1 -10
4 0 6 5 11 10 11 6 0 10 -2 10 -4z m46 -108 c66 -128 41 -297 -66 -453 -30
-43 -33 -45 -81 -45 l-51 0 36 49 c104 141 166 376 92 348 -9 -4 -16 -18 -16
-35 0 -36 -26 -125 -52 -177 -25 -49 -101 -165 -108 -164 -3 0 -22 33 -43 74
-37 74 -37 75 -21 107 9 18 18 35 20 37 2 2 15 -6 29 -17 29 -23 55 -19 55 7
0 9 -5 34 -10 55 -9 39 -7 41 46 99 60 64 114 150 114 182 1 20 1 20 16 0 9
-11 26 -41 40 -67z m-246 -234 c0 -8 -5 -12 -10 -9 -6 4 -8 11 -5 16 9 14 15
11 15 -7z m30 -273 c0 -5 -9 -11 -20 -14 -22 -6 -28 8 -7 16 19 8 27 8 27 -2z"></path>
      <path d="M1217 323 c-15 -14 -7 -43 12 -43 26 0 36 17 21 35 -14 16 -23 19
-33 8z"></path>
    </g>
  </symbol>
  <symbol version="1.0" xmlns="http://www.w3.org/2000/svg" preserveAspectRatio="xMidYMid meet" viewBox="0 0 128.000000 128.000000" id="Home">
    <metadata>Created by potrace 1.10, written by Peter Selinger 2001-2011</metadata>
    <g transform="translate(0.000000,128.000000) scale(0.100000,-0.100000)" fill="#000000" stroke="none">
      <path d="M316 1034 c-174 -136 -316 -252 -316 -258 0 -22 107 -119 124 -113
14 6 16 -25 16 -303 l0 -310 -64 0 c-70 0 -89 -12 -61 -38 13 -13 19 -14 22
-4 3 7 23 12 52 12 26 0 52 5 59 12 9 9 15 9 24 0 16 -16 80 -16 96 0 9 9 15
9 24 0 17 -17 799 -17 816 0 9 9 15 9 24 0 7 -7 33 -12 59 -12 29 0 49 -5 52
-12 3 -10 9 -9 22 4 28 26 9 38 -61 38 l-65 0 2 120 c2 123 -6 159 -33 132 -8
-8 -11 -50 -9 -132 l2 -120 -401 0 -401 0 2 122 c2 103 0 123 -14 132 -9 6
-19 7 -23 3 -4 -4 -6 -63 -5 -132 l2 -125 -40 0 -41 0 0 328 0 327 226 175
c124 96 229 175 235 175 5 0 110 -79 234 -175 l226 -175 -2 -123 c-2 -125 6
-161 33 -134 8 8 11 46 9 117 -2 94 -1 104 14 99 12 -5 33 10 71 47 30 29 54
59 54 65 0 6 -36 39 -80 73 l-79 62 -3 137 -3 137 -83 3 c-47 2 -89 -2 -96 -7
-9 -7 -11 -29 -8 -67 l5 -56 -143 111 c-78 61 -146 111 -150 111 -5 0 -150
-111 -324 -246z m616 -38 l287 -223 -28 -28 -29 -27 -257 202 c-142 110 -264
199 -270 196 -7 -2 -126 -93 -265 -201 l-252 -197 -28 27 -28 27 286 224 c158
123 289 224 292 224 3 0 134 -101 292 -224z m138 48 l0 -96 -50 42 c-49 41
-50 43 -50 96 l0 54 50 0 50 0 0 -96z m20 -120 c0 -8 -5 -12 -10 -9 -6 4 -8
11 -5 16 9 14 15 11 15 -7z"></path>
      <path d="M380 718 c0 -7 -1 -123 -1 -257 0 -190 3 -246 13 -252 17 -11 479
-11 496 0 10 6 13 62 13 252 0 134 -1 250 -1 257 0 9 -59 12 -260 12 -201 0
-260 -3 -260 -12z m238 -132 l3 -96 -101 0 -100 0 0 93 c0 52 2 96 4 98 2 2
46 3 98 3 l93 -2 3 -96z m240 0 l3 -96 -101 0 -100 0 0 93 c0 52 2 96 4 98 2
2 46 3 98 3 l93 -2 3 -96z m-203 -115 c7 -12 -12 -24 -25 -16 -11 7 -4 25 10
25 5 0 11 -4 15 -9z m-37 -125 l3 -96 -101 0 -100 0 0 93 c0 52 2 96 4 98 2 2
46 3 98 3 l93 -2 3 -96z m240 0 l3 -96 -101 0 -100 0 0 93 c0 52 2 96 4 98 2
2 46 3 98 3 l93 -2 3 -96z"></path>
      <path d="M263 399 c-15 -15 -5 -39 17 -39 22 0 32 24 17 39 -6 6 -14 11 -17
11 -3 0 -11 -5 -17 -11z"></path>
      <path d="M1100 384 c-11 -12 -10 -18 3 -32 16 -15 18 -15 34 0 13 14 14 20 3
32 -7 9 -16 16 -20 16 -4 0 -13 -7 -20 -16z"></path>
    </g>
  </symbol>
  <symbol xmlns="http://www.w3.org/2000/svg" version="1.1" xmlns:xlink="http://www.w3.org/1999/xlink" viewBox="0 0 128px 128px" id="recliner">
    <g>
      <path fill="#000000" d="M 127.5,25.5 C 127.5,27.8333 127.5,30.1667 127.5,32.5C 125.981,35.0205 124.314,37.5205 122.5,40C 119.333,40.8333 118.167,39.6667 119,36.5C 120.123,33.7513 121.623,31.2513 123.5,29C 119.91,25.8715 115.91,23.8715 111.5,23C 108.989,25.1793 106.822,27.6793 105,30.5C 101.212,37.9125 97.0453,45.0791 92.5,52C 90.3927,52.8542 89.0593,52.1875 88.5,50C 90.9534,45.5942 93.2867,41.0942 95.5,36.5C 92.0433,32.4644 88.5433,32.1311 85,35.5C 81.6995,41.6297 78.1995,47.6297 74.5,53.5C 80.1376,54.3299 85.8042,54.8299 91.5,55C 92.3333,55.8333 93.1667,56.6667 94,57.5C 94.3333,64.5 94.6667,71.5 95,78.5C 101.51,65.4646 109.01,53.1312 117.5,41.5C 119.941,43.5282 120.108,45.8616 118,48.5C 110.293,62.0819 102.46,75.5819 94.5,89C 97.7119,97.3587 100.212,105.859 102,114.5C 100.667,115.833 99.3333,115.833 98,114.5C 96.8476,111.56 95.8476,108.56 95,105.5C 94.6667,108.833 94.3333,112.167 94,115.5C 93.1667,116.333 92.3333,117.167 91.5,118C 85.3258,118.95 79.3258,118.617 73.5,117C 73.9574,116.586 74.2907,116.086 74.5,115.5C 79.3829,114.809 84.2162,114.143 89,113.5C 89.4999,100.171 89.6666,86.8375 89.5,73.5C 67.5,73.5 45.5,73.5 23.5,73.5C 23.177,87.0792 23.5103,100.579 24.5,114C 39.8333,114.333 55.1667,114.667 70.5,115C 71.4506,115.718 71.6172,116.551 71,117.5C 54.2406,118.658 37.4073,118.825 20.5,118C 18.8717,114.397 18.0384,110.563 18,106.5C 11.8355,114.453 5.66883,114.453 -0.5,106.5C -0.5,103.5 -0.5,100.5 -0.5,97.5C 0.363622,96.3117 1.36362,95.1451 2.5,94C 3.44915,93.3828 4.28248,93.5494 5,94.5C 5.61745,97.0351 5.11745,99.3684 3.5,101.5C 4.76123,104.264 6.59456,106.597 9,108.5C 12,105.5 15,102.5 18,99.5C 18.6667,94.8333 18.6667,90.1667 18,85.5C 15.5,88 13,90.5 10.5,93C 9.20677,93.49 7.87344,93.6567 6.5,93.5C 6.34332,92.1266 6.50999,90.7932 7,89.5C 10.6667,85.8333 14.3333,82.1667 18,78.5C 19.1093,75.0528 18.1093,72.3862 15,70.5C 14.2327,66.4065 14.566,62.4065 16,58.5C 17.214,56.9512 18.714,55.7845 20.5,55C 26.4908,54.5005 32.4908,54.3338 38.5,54.5C 38.5,55.8333 38.5,57.1667 38.5,58.5C 32.7383,58.1493 27.0716,58.6493 21.5,60C 19.4146,62.8365 19.0813,65.8365 20.5,69C 43.4976,69.5 66.4976,69.6666 89.5,69.5C 89.7892,65.8936 89.4558,62.3936 88.5,59C 72.8369,58.5001 57.1702,58.3334 41.5,58.5C 41.5,57.1667 41.5,55.8333 41.5,54.5C 50.5062,54.6664 59.5062,54.4998 68.5,54C 72.46,47.2475 76.2934,40.4142 80,33.5C 82.0673,30.93 84.5673,28.93 87.5,27.5C 87.2333,19.541 90.5667,13.3743 97.5,9C 106.608,6.88724 112.942,10.0539 116.5,18.5C 120.364,20.5943 124.031,22.9277 127.5,25.5 Z M 101.5,12.5 C 104.757,13.4617 107.757,14.9617 110.5,17C 105.617,21.0548 101.617,25.8881 98.5,31.5C 94.8369,30.6834 92.5035,28.5168 91.5,25C 93.6642,19.6926 96.9976,15.5259 101.5,12.5 Z"></path>
    </g>
  </symbol>
</svg>